<svg xmlns="http://www.w3.org/2000/svg" xmlns:xlink="http://www.w3.org/1999/xlink" fill="none" version="1.1" width="18.68402099609375" height="22.02899932861328" viewBox="0 0 18.68402099609375 22.02899932861328"><g><g></g><g><path d="M14.341000072479249,12.030000043869018C14.341000072479249,12.030000043869018,18.68400007247925,16.37300004386902,18.68400007247925,16.37300004386902C18.68400007247925,16.37300004386902,13.028000072479248,22.02900004386902,13.028000072479248,22.02900004386902C13.028000072479248,22.02900004386902,11.028000072479248,22.02900004386902,11.028000072479248,22.02900004386902C11.028000072479248,22.02900004386902,11.028000072479248,15.343000043869019,11.028000072479248,15.343000043869019C11.028000072479248,15.343000043869019,6.664000072479248,19.70700004386902,6.664000072479248,19.70700004386902C6.664000072479248,19.70700004386902,5.249000072479248,18.293000043869018,5.249000072479248,18.293000043869018C5.249000072479248,18.293000043869018,11.028000072479248,12.51500004386902,11.028000072479248,12.51500004386902C11.028000072479248,12.51500004386902,11.028000072479248,11.545000043869019,11.028000072479248,11.545000043869019C11.028000072479248,11.545000043869019,5.249000072479248,5.765000043869019,5.249000072479248,5.765000043869019C5.249000072479248,5.765000043869019,6.664000072479248,4.351000043869019,6.664000072479248,4.351000043869019C6.664000072479248,4.351000043869019,11.028000072479248,8.715000043869018,11.028000072479248,8.715000043869018C11.028000072479248,8.715000043869018,11.028000072479248,2.0290000438690186,11.028000072479248,2.0290000438690186C11.028000072479248,2.0290000438690186,13.028000072479248,2.0290000438690186,13.028000072479248,2.0290000438690186C13.028000072479248,2.0290000438690186,18.68400007247925,7.686000043869019,18.68400007247925,7.686000043869019C18.68400007247925,7.686000043869019,14.341000072479249,12.029000043869019,14.341000072479249,12.029000043869019C14.341000072479249,12.029000043869019,14.341000072479249,12.030000043869018,14.341000072479249,12.030000043869018C14.341000072479249,12.030000043869018,14.341000072479249,12.030000043869018,14.341000072479249,12.030000043869018ZM13.028000072479248,13.54400004386902C13.028000072479248,13.54400004386902,13.028000072479248,19.20100004386902,13.028000072479248,19.20100004386902C13.028000072479248,19.20100004386902,15.856000072479247,16.37300004386902,15.856000072479247,16.37300004386902C15.856000072479247,16.37300004386902,13.028000072479248,13.54400004386902,13.028000072479248,13.54400004386902C13.028000072479248,13.54400004386902,13.028000072479248,13.54400004386902,13.028000072479248,13.54400004386902C13.028000072479248,13.54400004386902,13.028000072479248,13.54400004386902,13.028000072479248,13.54400004386902ZM13.028000072479248,10.514000043869018C13.028000072479248,10.514000043869018,15.856000072479247,7.686000043869019,15.856000072479247,7.686000043869019C15.856000072479247,7.686000043869019,13.028000072479248,4.858000043869019,13.028000072479248,4.858000043869019C13.028000072479248,4.858000043869019,13.028000072479248,10.51500004386902,13.028000072479248,10.51500004386902C13.028000072479248,10.51500004386902,13.028000072479248,10.514000043869018,13.028000072479248,10.514000043869018C13.028000072479248,10.514000043869018,13.028000072479248,10.514000043869018,13.028000072479248,10.514000043869018Z" fill="#CACACA" fill-opacity="1"/></g></g></svg>