<svg xmlns="http://www.w3.org/2000/svg" xmlns:xlink="http://www.w3.org/1999/xlink" fill="none" version="1.1" width="16" height="16" viewBox="0 0 16 16"><g><g><ellipse cx="8" cy="8" rx="7.399999976158142" ry="7.399999976158142" fill-opacity="0" stroke-opacity="1" stroke="#FFFFFF" fill="none" stroke-width="1.2000000476837158"/></g><g><g></g><g transform="matrix(1,5.551115123125783e-17,-5.551115123125783e-17,1,0,0)"><path d="M4.642654054389953,7.618316728134156C4.512479054389954,7.488136728134155,4.301424054389954,7.488146728134155,4.171248954389954,7.618316728134156C4.171248954389954,7.618316728134156,4.171248954389954,7.618316728134156,4.171248954389954,7.618316728134156C4.041074954389954,7.748486728134155,4.041073954389954,7.959546728134155,4.171248954389954,8.089716728134155C4.171248954389954,8.089716728134155,6.410418054389954,10.328896728134154,6.410418054389954,10.328896728134154C6.605688054389954,10.524156728134155,6.922268054389954,10.524156728134155,7.117528054389954,10.328896728134154C7.117528054389954,10.328896728134154,11.556588054389954,5.889832728134155,11.556588054389954,5.889832728134155C11.686758054389953,5.759657728134155,11.686758054389953,5.5486027281341554,11.556588054389954,5.418427628134156C11.556588054389954,5.418427628134156,11.556588054389954,5.418427628134156,11.556588054389954,5.418427628134156C11.426408054389952,5.288252628134155,11.215358054389954,5.2882536281341554,11.085178054389953,5.418427628134156C11.085178054389953,5.418427628134156,6.763978054389954,9.739636728134155,6.763978054389954,9.739636728134155C6.763978054389954,9.739636728134155,4.642654054389953,7.618316728134156,4.642654054389953,7.618316728134156C4.642654054389953,7.618316728134156,4.642654054389953,7.618316728134156,4.642654054389953,7.618316728134156Z" fill="#FFFFFF" fill-opacity="1"/><path d="M6.763978054389954,9.386086728134156L10.908408054389954,5.241646928134156Q11.079258054389953,5.070796728134155,11.320878054389954,5.070796728134155Q11.562498054389954,5.070796728134155,11.733368054389953,5.241654328134155Q11.904218054389954,5.412508228134155,11.904218054389954,5.654129728134155Q11.904218054389954,5.895751728134155,11.733368054389953,6.066609728134155L7.294308054389953,10.505676728134155Q7.074638054389954,10.725336728134156,6.763978054389954,10.725336728134156Q6.453318054389953,10.725336728134156,6.233638054389953,10.505676728134155L3.9944755543899535,8.266496728134156Q3.8236180543899536,8.095646728134156,3.8236180543899536,7.854016728134155Q3.8236180543899536,7.612386728134155,3.9944755543899535,7.441536728134155Q4.165329654389954,7.270686728134155,4.406948054389954,7.270686728134155Q4.648579054389954,7.2706767281341556,4.8194300543899535,7.441536728134155L6.763978054389954,9.386086728134156ZM4.465877054389954,7.795096728134155L6.587198054389954,9.916416728134156L6.763978054389954,10.093186728134155L11.261948054389954,5.595208728134155Q11.320878054389954,5.536278728134155,11.379808054389954,5.595200728134155Q11.438738054389955,5.654129728134155,11.379808054389954,5.713055728134155L6.940748054389953,10.152116728134155Q6.763978054389954,10.328896728134154,6.587198054389954,10.152116728134155L4.348022054389953,7.912936728134156Q4.323618054389954,7.888536728134156,4.323618054389954,7.854016728134155Q4.323618054389954,7.819496728134155,4.348022054389953,7.795096728134155Q4.372434054389954,7.770686728134155,4.406955054389954,7.770686728134155Q4.441470054389954,7.770686728134155,4.465877054389954,7.795096728134155Z" fill-rule="evenodd" fill="#FFFFFF" fill-opacity="1"/></g></g></g></svg>