<svg xmlns="http://www.w3.org/2000/svg" xmlns:xlink="http://www.w3.org/1999/xlink" fill="none" version="1.1" width="16" height="16" viewBox="0 0 16 16"><g><g><ellipse cx="8" cy="8" rx="7.399999976158142" ry="7.399999976158142" fill-opacity="0" stroke-opacity="1" stroke="#FFFFFF" fill="none" stroke-width="1.2000000476837158"/></g><g><g></g><g transform="matrix(1,5.551115123125783e-17,-5.551115123125783e-17,1,0,0)"><path d="M11.06274173171997,5.478128294219971C11.21200173171997,5.328862294219971,11.21200173171997,5.086854294219971,11.06274173171997,4.937589294219971C11.06274173171997,4.937589294219971,11.06274173171997,4.937589294219971,11.06274173171997,4.937589294219971C10.91347173171997,4.788322794219971,10.67146173171997,4.7883217942199705,10.52220173171997,4.937588294219971C10.52220173171997,4.937588294219971,7.999671731719971,7.460108294219971,7.999671731719971,7.460108294219971C7.999671731719971,7.460108294219971,5.477151731719971,4.937588294219971,5.477151731719971,4.937588294219971C5.327885731719971,4.7883217942199705,5.085877731719971,4.7883217942199705,4.936612731719971,4.937588294219971C4.936612731719971,4.937588294219971,4.936612731719971,4.937588294219971,4.936612731719971,4.937588294219971C4.7873452317199705,5.086854294219971,4.7873452317199705,5.328861294219971,4.936612731719971,5.478128294219971C4.936612731719971,5.478128294219971,7.459131731719971,8.000648294219971,7.459131731719971,8.000648294219971C7.459131731719971,8.000648294219971,4.936611731719971,10.52317829421997,4.936611731719971,10.52317829421997C4.7873452317199705,10.67243829421997,4.7873452317199705,10.91444829421997,4.936611731719971,11.06371829421997C4.936611731719971,11.06371829421997,4.936611731719971,11.06371829421997,4.936611731719971,11.06371829421997C5.085877731719971,11.21297829421997,5.327884731719971,11.21297829421997,5.477151731719971,11.06371829421997C5.477151731719971,11.06371829421997,7.999671731719971,8.541188294219971,7.999671731719971,8.541188294219971C7.999671731719971,8.541188294219971,10.52220173171997,11.06371829421997,10.52220173171997,11.06371829421997C10.67146173171997,11.21297829421997,10.91347173171997,11.21297829421997,11.06274173171997,11.06371829421997C11.06274173171997,11.06371829421997,11.06274173171997,11.06371829421997,11.06274173171997,11.06371829421997C11.21200173171997,10.91444829421997,11.21200173171997,10.67243829421997,11.06274173171997,10.52317829421997C11.06274173171997,10.52317829421997,8.540211731719971,8.000648294219971,8.540211731719971,8.000648294219971C8.540211731719971,8.000648294219971,11.06274173171997,5.478128294219971,11.06274173171997,5.478128294219971C11.06274173171997,5.478128294219971,11.06274173171997,5.478128294219971,11.06274173171997,5.478128294219971Z" fill="#FFFFFF" fill-opacity="1"/><path d="M8.823051731719971,8.000648294219971L11.20416173171997,10.38175829421997Q11.37468173171997,10.55227829421997,11.37468173171997,10.79344829421997Q11.37468173171997,11.034608294219971,11.20416173171997,11.20514829421997Q11.033631731719971,11.37565829421997,10.79247173171997,11.37565829421997Q10.55130173171997,11.37565829421997,10.38078173171997,11.20513829421997L7.999671731719971,8.824028294219971L5.618570731719971,11.20513829421997Q5.448041731719971,11.37565829421997,5.206881731719971,11.37565829421997Q4.965720731719971,11.37565829421997,4.795187931719971,11.20513829421997Q4.6246617317199705,11.034608294219971,4.6246617317199705,10.79344829421997Q4.6246617317199705,10.55227829421997,4.795189631719971,10.38175829421997L7.176291731719971,8.000648294219971L4.795190831719971,5.61955029421997Q4.6246617317199705,5.449021294219971,4.6246617317199705,5.207858294219971Q4.6246617317199705,4.9666942942199706,4.79519093171997,4.796166494219971Q4.965718731719971,4.6256382942199705,5.206882731719971,4.6256382942199705Q5.44804573171997,4.6256382942199705,5.61857373171997,4.796166494219971L7.999671731719971,7.177268294219971L10.38078173171997,4.796169294219971Q10.55130173171997,4.6256382942199705,10.79247173171997,4.6256382942199705Q11.033631731719971,4.625639294219971,11.20416173171997,4.796170294219971Q11.37468173171997,4.966698294219971,11.37468173171997,5.207859294219971Q11.37468173171997,5.449019294219971,11.20416173171997,5.61955029421997L8.823051731719971,8.000648294219971ZM10.92132173171997,5.336707294219971L8.398791731719971,7.859228294219971L8.25737173171997,8.000648294219971L10.92132173171997,10.66459829421997Q11.050161731719971,10.79344829421997,10.92132173171997,10.922288294219971Q10.792461731719971,11.051138294219971,10.66362173171997,10.92229829421997L7.999671731719971,8.25834829421997L5.335733731719971,10.922288294219971Q5.206881731719971,11.051138294219971,5.0780347317199706,10.92229829421997Q5.024661731719971,10.86892829421997,5.024661731719971,10.79344829421997Q5.024661731719971,10.717968294219972,5.07803273171997,10.66459829421997L7.741971731719971,8.000648294219971L5.07803373171997,5.336707294219971Q5.024661731719971,5.28333629421997,5.024661731719971,5.207858294219971Q5.024661731719971,5.1323802942199706,5.07803373171997,5.07900929421997Q5.131404731719971,5.025638294219971,5.206882731719971,5.025638294219971Q5.28235973171997,5.025638294219971,5.335730731719971,5.07900929421997L7.999671731719971,7.742948294219971L10.66362173171997,5.079006294219971Q10.716991731719972,5.025638294219971,10.79247173171997,5.025638294219971Q10.86795173171997,5.025639294219971,10.92132173171997,5.079007294219971Q11.050161731719971,5.207859294219971,10.92132173171997,5.336707294219971Z" fill-rule="evenodd" fill="#FFFFFF" fill-opacity="1"/></g></g></g></svg>