<svg xmlns="http://www.w3.org/2000/svg" xmlns:xlink="http://www.w3.org/1999/xlink" fill="none" version="1.1" width="24" height="24" viewBox="0 0 24 24"><defs><clipPath id="master_svg0_9_09577"><rect x="0" y="0" width="24" height="24" rx="0"/></clipPath></defs><g clip-path="url(#master_svg0_9_09577)"><g><path d="M8.292892953674317,17.292900953674316C7.902370253674317,17.683400953674315,7.902370253674317,18.316600953674318,8.292892953674317,18.707100953674317C8.683416953674316,19.097600953674316,9.316580953674316,19.097600953674316,9.707110953674317,18.707100953674317C9.707110953674317,18.707100953674317,8.292892953674317,17.292900953674316,8.292892953674317,17.292900953674316C8.292892953674317,17.292900953674316,8.292892953674317,17.292900953674316,8.292892953674317,17.292900953674316ZM15.000000953674316,12.000000953674316C15.000000953674316,12.000000953674316,15.707110953674317,12.707110953674317,15.707110953674317,12.707110953674317C16.09763095367432,12.316580953674316,16.09763095367432,11.683420953674316,15.707110953674317,11.292890953674316C15.707110953674317,11.292890953674316,15.000000953674316,12.000000953674316,15.000000953674316,12.000000953674316C15.000000953674316,12.000000953674316,15.000000953674316,12.000000953674316,15.000000953674316,12.000000953674316ZM9.707110953674317,5.292892953674317C9.316580953674316,4.902370253674317,8.683416953674316,4.902370253674317,8.292892953674317,5.292892953674317C7.902370253674317,5.683416953674317,7.902370253674317,6.3165809536743165,8.292892953674317,6.7071109536743165C8.292892953674317,6.7071109536743165,9.707110953674317,5.292892953674317,9.707110953674317,5.292892953674317C9.707110953674317,5.292892953674317,9.707110953674317,5.292892953674317,9.707110953674317,5.292892953674317ZM9.707110953674317,18.707100953674317C9.707110953674317,18.707100953674317,15.707110953674317,12.707110953674317,15.707110953674317,12.707110953674317C15.707110953674317,12.707110953674317,14.292890953674316,11.292890953674316,14.292890953674316,11.292890953674316C14.292890953674316,11.292890953674316,8.292892953674317,17.292900953674316,8.292892953674317,17.292900953674316C8.292892953674317,17.292900953674316,9.707110953674317,18.707100953674317,9.707110953674317,18.707100953674317C9.707110953674317,18.707100953674317,9.707110953674317,18.707100953674317,9.707110953674317,18.707100953674317ZM15.707110953674317,11.292890953674316C15.707110953674317,11.292890953674316,9.707110953674317,5.292892953674317,9.707110953674317,5.292892953674317C9.707110953674317,5.292892953674317,8.292892953674317,6.7071109536743165,8.292892953674317,6.7071109536743165C8.292892953674317,6.7071109536743165,14.292890953674316,12.707110953674317,14.292890953674316,12.707110953674317C14.292890953674316,12.707110953674317,15.707110953674317,11.292890953674316,15.707110953674317,11.292890953674316C15.707110953674317,11.292890953674316,15.707110953674317,11.292890953674316,15.707110953674317,11.292890953674316Z" fill="#CACACA" fill-opacity="1"/></g></g></svg>