<svg xmlns="http://www.w3.org/2000/svg" xmlns:xlink="http://www.w3.org/1999/xlink" fill="none" version="1.1" width="20" height="20" viewBox="0 0 20 20"><defs><clipPath id="master_svg0_1_0480"><rect x="0" y="0" width="20" height="20" rx="0"/></clipPath></defs><g clip-path="url(#master_svg0_1_0480)"><g><path d="M13.1902296875,4.94082279296875C10.9121796875,2.66276279296875,7.2186796875,2.66276279296875,4.9406396875,4.94082279296875C2.6625796875,7.21886279296875,2.6625796875,10.91236279296875,4.9406396875,13.19041279296875C7.2186796875,15.46841279296875,10.9121796875,15.46841279296875,13.1902296875,13.19041279296875C15.4682296875,10.91236279296875,15.4682296875,7.21886279296875,13.1902296875,4.94082279296875C13.1902296875,4.94082279296875,13.1902296875,4.94082279296875,13.1902296875,4.94082279296875ZM3.7621296875,3.76231279296875C6.6910596875,0.83337979296875,11.4397996875,0.83337979296875,14.3687296875,3.76231279296875C17.0984296875,6.49207279296875,17.2841296875,10.80253279296875,14.9256296875,13.74731279296875C14.9256296875,13.74731279296875,17.9042296875,16.72591279296875,17.9042296875,16.72591279296875C17.9042296875,16.72591279296875,16.7257296875,17.90441279296875,16.7257296875,17.90441279296875C16.7257296875,17.90441279296875,13.7471296875,14.92581279296875,13.7471296875,14.92581279296875C10.8023496875,17.28431279296875,6.4918896875,17.09861279296875,3.7621296875,14.36891279296875C0.8331966875,11.43998279296875,0.8331966875,6.69124279296875,3.7621296875,3.76231279296875C3.7621296875,3.76231279296875,3.7621296875,3.76231279296875,3.7621296875,3.76231279296875Z" fill-rule="evenodd" fill="#4E5969" fill-opacity="1"/></g></g></svg>