<svg xmlns="http://www.w3.org/2000/svg" xmlns:xlink="http://www.w3.org/1999/xlink" fill="none" version="1.1" width="24" height="24" viewBox="0 0 24 24"><defs><clipPath id="master_svg0_9_09635"><rect x="0" y="0" width="24" height="24" rx="0"/></clipPath></defs><g clip-path="url(#master_svg0_9_09635)"><g><g></g><g><path d="M9.97299591369629,18.000002788543704C9.97299591369629,18.000002788543704,10.999995913696289,18.000002788543704,10.999995913696289,18.000002788543704C10.999995913696289,18.000002788543704,10.999995913696289,13.000002788543702,10.999995913696289,13.000002788543702C10.999995913696289,13.000002788543702,12.999995913696289,13.000002788543702,12.999995913696289,13.000002788543702C12.999995913696289,13.000002788543702,12.999995913696289,18.000002788543704,12.999995913696289,18.000002788543704C12.999995913696289,18.000002788543704,14.02699591369629,18.000002788543704,14.02699591369629,18.000002788543704C14.15899591369629,16.7980027885437,14.771995913696289,15.8060027885437,15.76699591369629,14.7230027885437C15.87999591369629,14.6010027885437,16.59899591369629,13.856002788543702,16.68399591369629,13.750002788543702C17.39029591369629,12.867602788543701,17.832995913696287,11.8037127885437,17.96109591369629,10.6807727885437C18.08929591369629,9.5578327885437,17.89759591369629,8.4215327885437,17.40829591369629,7.402742788543701C16.91889591369629,6.383942788543701,16.151695913696287,5.524082788543701,15.195095913696289,4.922172788543701C14.238495913696289,4.320272788543701,13.13130591369629,4.000802788543702,12.001075913696289,4.000562788543701C10.870855913696289,4.000322788543701,9.76353591369629,4.319322788543701,8.80665591369629,4.920812788543701C7.849785913696289,5.522312788543701,7.082255913696289,6.381842788543701,6.592465913696289,7.400432788543701C6.102675913696289,8.419022788543701,5.91053591369629,9.555232788543702,6.038195913696289,10.678232788543701C6.165845913696289,11.8012227885437,6.608085913696289,12.865302788543701,7.313995913696289,13.748002788543701C7.399995913696289,13.8550027885437,8.120995913696289,14.6010027885437,8.231995913696288,14.722002788543701C9.22799591369629,15.8060027885437,9.84099591369629,16.7980027885437,9.97299591369629,18.000002788543704C9.97299591369629,18.000002788543704,9.97299591369629,18.000002788543704,9.97299591369629,18.000002788543704C9.97299591369629,18.000002788543704,9.97299591369629,18.000002788543704,9.97299591369629,18.000002788543704ZM9.999995913696289,20.0000027885437C9.999995913696289,20.0000027885437,9.999995913696289,21.0000027885437,9.999995913696289,21.0000027885437C9.999995913696289,21.0000027885437,13.999995913696289,21.0000027885437,13.999995913696289,21.0000027885437C13.999995913696289,21.0000027885437,13.999995913696289,20.0000027885437,13.999995913696289,20.0000027885437C13.999995913696289,20.0000027885437,9.999995913696289,20.0000027885437,9.999995913696289,20.0000027885437C9.999995913696289,20.0000027885437,9.999995913696289,20.0000027885437,9.999995913696289,20.0000027885437ZM5.753995913696289,15.000002788543702C4.8121909136962895,13.823302788543701,4.221947913696289,12.4045027885437,4.051264213696289,10.906972788543701C3.880580913696289,9.409462788543701,4.136399913696289,7.894212788543701,4.789253913696289,6.535742788543701C5.442105913696289,5.177282788543701,6.46543591369629,4.030872788543701,7.741355913696289,3.228582788543701C9.017275913696288,2.426294788543701,10.493885913696289,2.000761546543701,12.001085913696288,2.001002891146701C13.50827591369629,2.0012442355437012,14.984795913696288,2.4272507885437014,16.26039591369629,3.2299527885437014C17.53609591369629,4.032642788543701,18.55899591369629,5.179382788543702,19.21149591369629,6.538052788543701C19.86389591369629,7.8967327885437015,20.119195913696288,9.4120627885437,19.94799591369629,10.9095127885437C19.77689591369629,12.407002788543702,19.186195913696288,13.825602788543701,18.24399591369629,15.0020027885437C17.62399591369629,15.7740027885437,15.999995913696289,17.000002788543704,15.999995913696289,18.5000027885437C15.999995913696289,18.5000027885437,15.999995913696289,21.0000027885437,15.999995913696289,21.0000027885437C15.999995913696289,21.5304027885437,15.78929591369629,22.0391027885437,15.41419591369629,22.4142027885437C15.03909591369629,22.7893027885437,14.530395913696289,23.0000027885437,13.999995913696289,23.0000027885437C13.999995913696289,23.0000027885437,9.999995913696289,23.0000027885437,9.999995913696289,23.0000027885437C9.46956591369629,23.0000027885437,8.960855913696289,22.7893027885437,8.585785913696288,22.4142027885437C8.210715913696289,22.0391027885437,7.9999959136962895,21.5304027885437,7.9999959136962895,21.0000027885437C7.9999959136962895,21.0000027885437,7.9999959136962895,18.5000027885437,7.9999959136962895,18.5000027885437C7.9999959136962895,17.000002788543704,6.374995913696289,15.7740027885437,5.753995913696289,15.000002788543702C5.753995913696289,15.000002788543702,5.753995913696289,15.000002788543702,5.753995913696289,15.000002788543702Z" fill="#CACACA" fill-opacity="1"/></g></g></g></svg>