<svg xmlns="http://www.w3.org/2000/svg" xmlns:xlink="http://www.w3.org/1999/xlink" fill="none" version="1.1" width="24" height="24" viewBox="0 0 24 24"><defs><clipPath id="master_svg0_9_09637"><rect x="0" y="0" width="24" height="24" rx="0"/></clipPath></defs><g clip-path="url(#master_svg0_9_09637)"><g><path d="M11,13.5C11,13.5,11,2.5,11,2.5C11,2.5,13,2.5,13,2.5C13,2.5,13,13.5,13,13.5C13,13.5,11,13.5,11,13.5C11,13.5,11,13.5,11,13.5ZM8.25075,5.50275C6.00636,6.80105,4.5,9.225200000000001,4.5,12C4.5,16.1421,7.85785,19.5,12,19.5C16.1421,19.5,19.5,16.1421,19.5,12C19.5,9.225200000000001,17.9937,6.80105,15.7493,5.50275C15.7493,5.50275,16.750700000000002,3.77155,16.750700000000002,3.77155C19.5877,5.41263,21.5,8.4824,21.5,12C21.5,17.2467,17.2467,21.5,12,21.5C6.75329,21.5,2.5,17.2467,2.5,12C2.5,8.4824,4.41233,5.41263,7.24928,3.77155C7.24928,3.77155,8.25075,5.50275,8.25075,5.50275C8.25075,5.50275,8.25075,5.50275,8.25075,5.50275Z" fill-rule="evenodd" fill="#CACACA" fill-opacity="1"/></g></g></svg>