<svg xmlns="http://www.w3.org/2000/svg" xmlns:xlink="http://www.w3.org/1999/xlink" fill="none" version="1.1" width="20" height="20" viewBox="0 0 20 20"><defs><clipPath id="master_svg0_1_0622"><rect x="0" y="0" width="20" height="20" rx="0"/></clipPath></defs><g clip-path="url(#master_svg0_1_0622)"><g><path d="M7.02898291015625,2.58213301171875C7.17927291015625,2.0411070117187498,7.67185291015625,1.66668701171875,8.23336291015625,1.66668701171875C8.23336291015625,1.66668701171875,11.76668291015625,1.66668701171875,11.76668291015625,1.66668701171875C12.32818291015625,1.66668701171875,12.82068291015625,2.04110601171875,12.97098291015625,2.58213301171875C12.97098291015625,2.58213301171875,13.39718291015625,4.11608701171875,13.39718291015625,4.11608701171875C13.39718291015625,4.11608701171875,14.93878291015625,3.71808701171875,14.93878291015625,3.71808701171875C15.48248291015625,3.57772701171875,16.05298291015625,3.81712701171875,16.33368291015625,4.30340701171875C16.33368291015625,4.30340701171875,18.10038291015625,7.36331701171875,18.10038291015625,7.36331701171875C18.38108291015625,7.84960701171875,18.30318291015625,8.463397011718751,17.90978291015625,8.864067011718749C17.90978291015625,8.864067011718749,16.79438291015625,10.00001701171875,16.79438291015625,10.00001701171875C16.79438291015625,10.00001701171875,17.90978291015625,11.13597701171875,17.90978291015625,11.13597701171875C18.30318291015625,11.53664701171875,18.38108291015625,12.15048701171875,18.10038291015625,12.63668701171875C18.10038291015625,12.63668701171875,16.33368291015625,15.69668701171875,16.33368291015625,15.69668701171875C16.05298291015625,16.18298701171875,15.48248291015625,16.42228701171875,14.93878291015625,16.28188701171875C14.93878291015625,16.28188701171875,13.39708291015625,15.88398701171875,13.39708291015625,15.88398701171875C13.39708291015625,15.88398701171875,12.97098291015625,17.41788701171875,12.97098291015625,17.41788701171875C12.82068291015625,17.95888701171875,12.32818291015625,18.33338701171875,11.76668291015625,18.33338701171875C11.76668291015625,18.33338701171875,8.23336291015625,18.33338701171875,8.23336291015625,18.33338701171875C7.67185291015625,18.33338701171875,7.17927291015625,17.95888701171875,7.02898291015625,17.41788701171875C7.02898291015625,17.41788701171875,6.60290291015625,15.88398701171875,6.60290291015625,15.88398701171875C6.60290291015625,15.88398701171875,5.06160291015625,16.28188701171875,5.06160291015625,16.28188701171875C4.5179229101562495,16.42228701171875,3.94736291015625,16.18298701171875,3.6666129101562497,15.69668701171875C3.6666129101562497,15.69668701171875,1.89997791015625,12.63668701171875,1.89997791015625,12.63668701171875C1.61922291015625,12.15048701171875,1.69717811015625,11.53664701171875,2.09057791015625,11.13597701171875C2.09057791015625,11.13597701171875,3.20594291015625,10.00001701171875,3.20594291015625,10.00001701171875C3.20594291015625,10.00001701171875,2.09057991015625,8.864067011718749,2.09057991015625,8.864067011718749C1.69718131015625,8.463397011718751,1.61922391015625,7.84960701171875,1.89997891015625,7.36331701171875C1.89997891015625,7.36331701171875,3.6666129101562497,4.30340701171875,3.6666129101562497,4.30340701171875C3.94736291015625,3.81712701171875,4.5179229101562495,3.57772701171875,5.06160291015625,3.71808701171875C5.06160291015625,3.71808701171875,6.60290291015625,4.11600701171875,6.60290291015625,4.11600701171875C6.60290291015625,4.11600701171875,7.02898291015625,2.58213301171875,7.02898291015625,2.58213301171875C7.02898291015625,2.58213301171875,7.02898291015625,2.58213301171875,7.02898291015625,2.58213301171875ZM6.49340291015625,15.48988701171875C6.49340291015625,15.48988701171875,6.49356291015625,15.49038701171875,6.49356291015625,15.49038701171875C6.49356291015625,15.49038701171875,6.49340291015625,15.48988701171875,6.49340291015625,15.48988701171875ZM8.55006291015625,3.33335701171875C8.55006291015625,3.33335701171875,8.09927291015625,4.95626701171875,8.09927291015625,4.95626701171875C7.91690291015625,5.61284701171875,7.24219291015625,6.00235701171875,6.58240291015625,5.83202701171875C6.58240291015625,5.83202701171875,4.95163291015625,5.41101701171875,4.95163291015625,5.41101701171875C4.95163291015625,5.41101701171875,3.5017129101562503,7.92235701171875,3.5017129101562503,7.92235701171875C3.5017129101562503,7.92235701171875,4.68181291015625,9.12426701171875,4.68181291015625,9.12426701171875C5.15923291015625,9.61051701171875,5.15923291015625,10.38956701171875,4.68181291015625,10.87576701171875C4.68181291015625,10.87576701171875,3.50170291015625,12.07768701171875,3.50170291015625,12.07768701171875C3.50170291015625,12.07768701171875,4.95163291015625,14.58898701171875,4.95163291015625,14.58898701171875C4.95163291015625,14.58898701171875,6.58240291015625,14.16798701171875,6.58240291015625,14.16798701171875C7.24223291015625,13.99768701171875,7.91690291015625,14.38718701171875,8.09927291015625,15.04378701171875C8.09927291015625,15.04378701171875,8.55006291015625,16.66668701171875,8.55006291015625,16.66668701171875C8.55006291015625,16.66668701171875,11.44994291015625,16.66668701171875,11.44994291015625,16.66668701171875C11.44994291015625,16.66668701171875,11.90078291015625,15.04368701171875,11.90078291015625,15.04368701171875C12.08318291015625,14.38708701171875,12.75778291015625,13.99758701171875,13.41758291015625,14.16798701171875C13.41758291015625,14.16798701171875,15.04868291015625,14.58898701171875,15.04868291015625,14.58898701171875C15.04868291015625,14.58898701171875,16.498682910156248,12.07768701171875,16.498682910156248,12.07768701171875C16.498682910156248,12.07768701171875,15.31848291015625,10.87576701171875,15.31848291015625,10.87576701171875C14.84108291015625,10.38956701171875,14.84108291015625,9.61051701171875,15.31848291015625,9.12426701171875C15.31848291015625,9.12426701171875,16.498682910156248,7.92235701171875,16.498682910156248,7.92235701171875C16.498682910156248,7.92235701171875,15.04868291015625,5.41101701171875,15.04868291015625,5.41101701171875C15.04868291015625,5.41101701171875,13.41758291015625,5.83210701171875,13.41758291015625,5.83210701171875C12.75778291015625,6.00243701171875,12.08318291015625,5.6129270117187495,11.90078291015625,4.95634701171875C11.90078291015625,4.95634701171875,11.44994291015625,3.33335701171875,11.44994291015625,3.33335701171875C11.44994291015625,3.33335701171875,8.55006291015625,3.33335701171875,8.55006291015625,3.33335701171875C8.55006291015625,3.33335701171875,8.55006291015625,3.33335701171875,8.55006291015625,3.33335701171875ZM9.99998291015625,8.33335701171875C9.07952291015625,8.33335701171875,8.33331291015625,9.07955701171875,8.33331291015625,10.00001701171875C8.33331291015625,10.92047701171875,9.07952291015625,11.66668701171875,9.99998291015625,11.66668701171875C10.92048291015625,11.66668701171875,11.66665291015625,10.92047701171875,11.66665291015625,10.00001701171875C11.66665291015625,9.07955701171875,10.92048291015625,8.33335701171875,9.99998291015625,8.33335701171875C9.99998291015625,8.33335701171875,9.99998291015625,8.33335701171875,9.99998291015625,8.33335701171875ZM6.66665291015625,10.00001701171875C6.66665291015625,8.15906701171875,8.159062910156251,6.66668701171875,9.99998291015625,6.66668701171875C11.84098291015625,6.66668701171875,13.33328291015625,8.15906701171875,13.33328291015625,10.00001701171875C13.33328291015625,11.84098701171875,11.84098291015625,13.33338701171875,9.99998291015625,13.33338701171875C8.159062910156251,13.33338701171875,6.66665291015625,11.84098701171875,6.66665291015625,10.00001701171875C6.66665291015625,10.00001701171875,6.66665291015625,10.00001701171875,6.66665291015625,10.00001701171875Z" fill-rule="evenodd" fill="#4E5969" fill-opacity="1"/></g></g></svg>