<svg xmlns="http://www.w3.org/2000/svg" xmlns:xlink="http://www.w3.org/1999/xlink" fill="none" version="1.1" width="20" height="20" viewBox="0 0 20 20"><defs><clipPath id="master_svg0_9_01805/1_1872"><rect x="0" y="0" width="20" height="20" rx="0"/></clipPath></defs><g clip-path="url(#master_svg0_9_01805/1_1872)"><g><path d="M9.999983253860474,1.9498487710952759C9.999983253860474,1.9498487710952759,17.916633253860475,6.6067187710952755,17.916633253860475,6.6067187710952755C17.916633253860475,6.6067187710952755,17.916633253860475,17.916648771095275,17.916633253860475,17.916648771095275C17.916633253860475,17.916648771095275,2.0833332538604736,17.916648771095275,2.0833332538604736,17.916648771095275C2.0833332538604736,17.916648771095275,2.0833332538604736,6.6067187710952755,2.0833332538604736,6.6067187710952755C2.0833332538604736,6.6067187710952755,9.999983253860474,1.9498487710952759,9.999983253860474,1.9498487710952759C9.999983253860474,1.9498487710952759,9.999983253860474,1.9498487710952759,9.999983253860474,1.9498487710952759ZM9.166653253860474,16.249948771095276C9.166653253860474,16.249948771095276,10.833313253860474,16.249948771095276,10.833313253860474,16.249948771095276C10.833313253860474,16.249948771095276,10.833313253860474,12.499948771095276,10.833313253860474,12.499948771095276C10.833313253860474,12.499948771095276,9.166653253860474,12.499948771095276,9.166653253860474,12.499948771095276C9.166653253860474,12.499948771095276,9.166653253860474,16.249948771095276,9.166653253860474,16.249948771095276C9.166653253860474,16.249948771095276,9.166653253860474,16.249948771095276,9.166653253860474,16.249948771095276ZM12.499933253860474,16.249948771095276C12.499933253860474,16.249948771095276,12.499933253860474,10.833328771095276,12.499933253860474,10.833328771095276C12.499933253860474,10.833328771095276,7.499993253860474,10.833328771095276,7.499993253860474,10.833328771095276C7.499993253860474,10.833328771095276,7.499993253860474,16.249948771095276,7.499993253860474,16.249948771095276C7.499993253860474,16.249948771095276,3.749993253860474,16.249948771095276,3.749993253860474,16.249948771095276C3.749993253860474,16.249948771095276,3.749993253860474,7.559958771095276,3.749993253860474,7.559958771095276C3.749993253860474,7.559958771095276,9.999983253860474,3.883478771095276,9.999983253860474,3.883478771095276C9.999983253860474,3.883478771095276,16.249933253860476,7.559958771095276,16.249933253860476,7.559958771095276C16.249933253860476,7.559958771095276,16.249933253860476,16.249948771095276,16.249933253860476,16.249948771095276C16.249933253860476,16.249948771095276,12.499933253860474,16.249948771095276,12.499933253860474,16.249948771095276C12.499933253860474,16.249948771095276,12.499933253860474,16.249948771095276,12.499933253860474,16.249948771095276Z" fill-rule="evenodd" fill="#1A1A1A" fill-opacity="1"/></g></g></svg>