<svg xmlns="http://www.w3.org/2000/svg" xmlns:xlink="http://www.w3.org/1999/xlink" fill="none" version="1.1" width="24" height="24" viewBox="0 0 24 24"><defs><clipPath id="master_svg0_9_09636"><rect x="0" y="0" width="24" height="24" rx="0"/></clipPath></defs><g clip-path="url(#master_svg0_9_09636)"><g><path d="M6.69816484375,6.69532412109375C7.81661484375,5.57685412109375,9.19776484375,4.88663412109375,10.64241484375,4.62198412109375C10.64241484375,4.62198412109375,10.28206484375,2.65472412109375,10.28206484375,2.65472412109375C8.450914843749999,2.99017312109375,6.69851484375,3.86653412109375,5.28395484375,5.28110412109375C1.57396984375,8.99107412109375,1.57396984375,15.00612412109375,5.28395484375,18.71612412109375C5.28395484375,18.71612412109375,3.57684484375,20.42322412109375,3.57684484375,20.42322412109375C3.57684484375,20.42322412109375,8.40526484375,20.42322412109375,8.40526484375,20.42322412109375C8.40526484375,20.42322412109375,8.40526484375,15.59482412109375,8.40526484375,15.59482412109375C8.40526484375,15.59482412109375,6.69816484375,17.301924121093748,6.69816484375,17.301924121093748C3.76923484375,14.37302412109375,3.76923484375,9.62427412109375,6.69816484375,6.69532412109375C6.69816484375,6.69532412109375,6.69816484375,6.69532412109375,6.69816484375,6.69532412109375ZM20.42426484375,3.57577412109375C20.42426484375,3.57577412109375,15.59586484375,3.57577412109375,15.59586484375,3.57577412109375C15.59586484375,3.57577412109375,15.59586484375,8.404224121093751,15.59586484375,8.404224121093751C15.59586484375,8.404224121093751,17.30296484375,6.69709412109375,17.30296484375,6.69709412109375C20.23186484375,9.62602412109375,20.23186484375,14.37472412109375,17.30296484375,17.303624121093748C16.18456484375,18.42222412109375,14.80346484375,19.11232412109375,13.35876484375,19.37702412109375C13.35876484375,19.37702412109375,13.71916484375,21.34432412109375,13.71916484375,21.34432412109375C15.55016484375,21.00882412109375,17.30266484375,20.13252412109375,18.71716484375,18.71792412109375C22.42716484375,15.00792412109375,22.42716484375,8.992874121093749,18.71716484375,5.28287412109375C18.71716484375,5.28287412109375,20.42426484375,3.57577412109375,20.42426484375,3.57577412109375C20.42426484375,3.57577412109375,20.42426484375,3.57577412109375,20.42426484375,3.57577412109375Z" fill-rule="evenodd" fill="#CACACA" fill-opacity="1"/></g></g></svg>